# xmcd
#
# Track frame offsets:
#	150
#	1513
#	19000
#	32068
#	54736
#	74529
#	93770
#	114186
#	140224
#	157972
#	174125
#	188767
#	209090
#
# Disc length: 3316 seconds
#
# Revision: 1
# Processed by: cddbd v1.5.2PL0 Copyright (c) Steve Scherf et al.
# Submitted via: audiograbber 1.83.01
#
DISCID=a30cf20d
DTITLE=Jochen Laschinsky - Shades and Light
DYEAR=2013
DGENRE=Rock
TTITLE0=Intro
TTITLE1=Shades and Light - with Brian
TTITLE2=Light My Fire - with Jens
TTITLE3=One Fott in the Blues - with Brian
TTITLE4=Unicorn - with Brian and Jens
TTITLE5=Steerpike - with Brian
TTITLE6=Just for You - with Brian and Jens
TTITLE7=The Other Side of the Road - with Brian
TTITLE8=Equality - with Jens
TTITLE9=Smile - with Brian, Delf and Zorro
TTITLE10=Better off Alive - with Jens and Sandro
TTITLE11=Raymond - with Brian and Jens
TTITLE12=Turtles on the Road - with Brian, Jens and Peter
EXTD=
EXTT0=
EXTT1=
EXTT2=
EXTT3=
EXTT4=
EXTT5=
EXTT6=
EXTT7=
EXTT8=
EXTT9=
EXTT10=
EXTT11=
EXTT12=
PLAYORDER=
